# xmcd
#
# Track frame offsets:
#	150
#	20552
#	41353
#	59324
#	80297
#	98442
#	114979
#	133170
#	150716
#	168712
#	183538
#	198877
#	214031
#	232154
#	249685
#
# Disc length: 3597 seconds
#
# Revision: 2
# Processed by: cddbd v1.5.2PL0 Copyright (c) Steve Scherf et al.
# Submitted via: audiograbber 1.83.01
#
DISCID=c80e0b0f
DTITLE=No Mercy - No Mercy
DYEAR=96
DGENRE=
TTITLE0=Where Do You Go
TTITLE1=Kiss You All Over
TTITLE2=Don't Make Me Live Without You
TTITLE3=When I Die
TTITLE4=Please Don't Go
TTITLE5=Bonita
TTITLE6=My Promise To You
TTITLE7=D'yer Maker
TTITLE8=Missing
TTITLE9=This Masquerade
TTITLE10=In And Out
TTITLE11=Who Do You Love
TTITLE12=How Much I Love You
TTITLE13=Part Of Me
TTITLE14=Where Do You Go (Trip House Mix)
EXTD=
EXTT0=
EXTT1=
EXTT2=
EXTT3=
EXTT4=
EXTT5=
EXTT6=
EXTT7=
EXTT8=
EXTT9=
EXTT10=
EXTT11=
EXTT12=
EXTT13=
EXTT14=
PLAYORDER=
